# List of geometric vertices, with (x, y, z [,w]) coordinates, w is optional and defaults to 1.0.
v -0.5 0 -0.5 0
v 0.5 0 -0.5 0
v -0.5 0 0.5 0
v 0.5 0 0.5 0

# List of texture coordinates, in (u, [,v ,w]) coordinates, these will vary between 0 and 1. v, w are optional and default to 0.
vt 0.0 0.0 [0]
vt 1.0 0.0 [0]
vt 0.0 1.0 [0]
vt 1.0 1.0 [0]

# List of vertex normals in (x,y,z) form; normals might not be unit vectors.
vn 0.0 1.0 0.0
vn 0.0 -1.0 0.0

# Polygonal face element (see below)
f 2/2/1 3/3/1 4/4/1
f 3/3/1 2/2/1 1/1/1
#underside
f 1/1/2 2/2/2 3/3/2
f 4/4/2 3/3/2 2/2/2